<?xml version="1.0" encoding="UTF-8" standalone="no"?>
<svg
   width="1000.0508"
   height="944.32629"
   version="1.1"
   id="svg7"
   xmlns="http://www.w3.org/2000/svg"
   xmlns:svg="http://www.w3.org/2000/svg">
  <defs
     id="defs2">
    <filter
       id="a"
       x="0"
       y="0"
       width="261"
       height="261"
       filterUnits="userSpaceOnUse">
      <feOffset
         dy="2"
         id="feOffset1" />
      <feGaussianBlur
         stdDeviation="7.5"
         result="blur"
         id="feGaussianBlur1" />
      <feFlood
         flood-opacity=".102"
         id="feFlood1" />
      <feComposite
         operator="in"
         in2="blur"
         id="feComposite1" />
      <feComposite
         in="SourceGraphic"
         id="feComposite2" />
    </filter>
  </defs>
  <path
     data-name="Path 66810"
     d="m 321.43989,44.211869 a 14.662114,14.662114 0 0 0 -6.44155,14.56093 l 36.75225,238.910671 10.41271,81.99486 a 14.569369,14.569369 0 0 0 28.91109,-0.0506 L 401.19201,297.68347 444.40267,16.826849 A 14.678976,14.678976 0 0 0 426.50292,0.39414918 327.90355,327.90355 0 0 0 321.47362,44.237159 M 573.5119,0.39414918 A 14.678976,14.678976 0 0 0 555.61215,16.826849 l 43.21065,280.856621 10.11762,81.94427 a 14.569369,14.569369 0 0 0 28.91109,0.0506 L 648.26423,297.68347 685.0249,58.772799 A 14.662114,14.662114 0 0 0 678.58335,44.211869 327.86982,327.86982 0 0 0 573.55405,0.36885918 M 762.36566,167.59621 692.5541,558.54937 a 14.63682,14.63682 0 0 0 24.11365,13.49016 329.73315,329.73315 0 0 0 113.97496,-249.66907 327.84453,327.84453 0 0 0 -41.3136,-159.60541 14.586232,14.586232 0 0 0 -26.98032,4.84802 M 524.73655,347.07431 514.49246,265.10475 a 14.569369,14.569369 0 0 0 -28.91952,0 l -10.24409,81.96956 -43.7334,284.27132 a 14.544075,14.544075 0 0 0 11.63526,16.59289 327.72649,327.72649 0 0 0 56.80199,5.05881 327.69276,327.69276 0 0 0 56.80199,-5.05881 14.544075,14.544075 0 0 0 11.63526,-16.59289 L 524.73655,347.07431 M 237.70818,167.61307 a 14.586232,14.586232 0 0 0 -26.98031,-4.84802 327.84453,327.84453 0 0 0 -41.31361,159.60541 329.73315,329.73315 0 0 0 113.97496,249.66907 14.63682,14.63682 0 0 0 24.11366,-13.49016 L 237.69132,167.59621"
     fill="#e30000"
     id="path5"
     style="stroke-width:8.43135" />
  <path
     id="path18"
     style="fill:#0e145e;fill-opacity:1;stroke-width:9.0144"
     d="m 250.41992,807.7832 -3.60547,0.0801 h -21.78124 c -4.85849,0 -10.45479,1.01209 -13.82227,6.82422 -0.71466,1.23344 -1.16787,2.60861 -1.54102,3.98242 l -24.86328,91.54102 c -0.38764,0.97343 -0.97454,1.36133 -1.56054,1.36133 h -0.97461 c -0.58601,0 -1.16191,-0.3879 -1.5586,-1.36133 l -27.52344,-89.48438 c -2.85237,-9.27362 -7.07161,-12.85351 -17.5625,-12.85351 h -22.99023 c -9.13286,0 -13.595928,3.54432 -16.371095,12.85351 l -26.675781,89.48438 c -0.396679,0.97344 -0.983447,1.36133 -1.371094,1.36133 h -0.982422 c -0.784345,0 -1.162978,-0.38789 -1.361328,-1.36133 l -24.125,-85.38477 -1.667969,-5.875 c -0.330243,-1.16365 -0.823654,-2.65843 -1.496094,-3.86719 -3.436415,-6.17717 -8.935673,-7.21093 -13.65039,-7.21093 H 0 l 1.6855469,5.27343 33.3574221,113.82813 c 4.111013,14.24113 8.582638,17.3418 18.517578,17.3418 h 26.541015 c 8.582626,0 12.621089,-3.49727 16.939454,-17.3418 l 26.089844,-84.99609 c 0.1803,-0.97345 0.58601,-1.35938 1.36133,-1.35938 h 0.78516 c 0.78431,0 0.97277,0.38593 1.1621,1.35938 l 25.7754,84.99609 c 4.11101,13.85355 8.40217,17.3418 16.96679,17.3418 h 27.3086 c 8.19498,0 12.8556,-3.49727 17.1289,-17.3418 l 35.05078,-113.82813 1.6875,-5.35546 z m 66.51563,0.008 -5.0586,0.0449 h -0.0527 v 85.00586 c 0,37.42351 15.23598,51.46679 55.20117,51.46679 h 59.04102 v -19.62304 c 0,-8.09097 -5.11355,-13.38477 -12.91797,-13.38477 h -44.73438 c -16.96694,0 -21.06054,-4.50657 -21.06054,-22.01953 V 821.0332 c 0,-8.79986 -5.90022,-13.24218 -13.40625,-13.24218 z m 125.82812,0 -5.05859,0.0449 -0.0527,0.002 v 85.00391 c 0,37.42351 15.23599,51.46679 55.20117,51.46679 h 59.04101 v -19.62304 c 0,-8.09097 -5.11549,-13.38477 -12.91992,-13.38477 h -44.73437 c -16.96694,0 -21.0586,-4.50657 -21.0586,-22.01953 V 821.0332 c 0,-8.79986 -5.90021,-13.24218 -13.40625,-13.24218 z m 557.28713,0 -3.60744,0.082 h -21.78125 c -4.85856,0 -10.45282,1.01013 -13.82031,6.82226 -0.71468,1.23345 -1.16784,2.61058 -1.54102,3.98438 l -24.86523,91.53906 c -0.38765,0.97344 -0.97258,1.36133 -1.5586,1.36133 h -0.9746 c -0.58593,0 -1.16194,-0.38789 -1.5586,-1.36133 l -27.52539,-89.48437 c -2.85239,-9.27363 -7.07158,-12.85352 -17.5625,-12.85352 h -22.98828 c -9.13286,0 -13.59596,3.54432 -16.37109,12.85352 l -26.67774,89.48437 c -0.39676,0.97344 -0.9815,1.36133 -1.36914,1.36133 h -0.98437 c -0.78441,0 -1.16294,-0.38789 -1.36133,-1.36133 l -24.125,-85.38281 -1.66797,-5.87696 c -0.33031,-1.16363 -0.82361,-2.65842 -1.49609,-3.86718 -3.43643,-6.17718 -8.9337,-7.21094 -13.64844,-7.21094 h -24.9375 l 1.68554,5.27344 33.35743,113.83008 c 4.11098,14.24112 8.58257,17.34179 18.51757,17.34179 h 26.54102 c 8.5826,0 12.62107,-3.49727 16.93945,-17.34179 l 26.0918,-84.9961 c 0.18026,-0.97345 0.58594,-1.36133 1.36133,-1.36133 h 0.7832 c 0.78431,0 0.97479,0.38788 1.16406,1.36133 l 25.7754,84.9961 c 4.11099,13.85354 8.40212,17.34179 16.96679,17.34179 h 27.30664 c 8.19494,0 12.85557,-3.49727 17.12891,-17.34179 l 35.05273,-113.83023 1.68555,-5.35352 z m -738.334,0.0449 v 5.03906 l 0.0723,126.31445 v 5.01953 l 5.05665,0.0625 h 30.41796 l -0.0801,-131.35156 0.0801,-5.08398 z m 355.25,0 c -39.96512,0 -55.15625,14.04326 -55.15625,51.46679 v 33.5293 c 0,37.42352 15.21987,51.45899 55.20312,51.45899 h 60.83594 c 39.96531,0 55.17297,-14.03547 55.16406,-51.45899 v -33.5293 c 0,-37.42353 -15.24571,-51.46679 -55.21093,-51.46679 z m 1.38086,32.16992 h 0.008 58.07813 c 16.96701,0 21.05859,4.28197 21.05859,22.0293 v 28.05859 c 0,17.7383 -4.07401,22.23438 -21.04102,22.23437 h -58.07617 c -16.9669,0 -21.06055,-4.50508 -21.06055,-22.23437 v -28.05859 c 0,-17.74448 4.0821,-22.02792 21.03321,-22.0293 z" />
</svg>
