<?xml version="1.0" encoding="UTF-8"?>
<svg version="1.1" xmlns="http://www.w3.org/2000/svg" width="500" height="500">
<path d="M0 0 C165 0 330 0 500 0 C500 165 500 330 500 500 C335 500 170 500 0 500 C0 335 0 170 0 0 Z " fill="#FEFEFE" transform="translate(0,0)"/>
<path d="M0 0 C25.17328038 -0.2569533 50.34636427 -0.45093335 75.52069187 -0.56993389 C87.20963437 -0.62665675 98.89776211 -0.70398864 110.58618164 -0.82983398 C120.77378899 -0.9394683 130.96080636 -1.01043864 141.14898723 -1.03497344 C146.54402796 -1.04931624 151.93738087 -1.08302051 157.33188057 -1.16303062 C162.41067033 -1.2377473 167.48707904 -1.26071968 172.5663662 -1.24418449 C174.42928644 -1.24720875 176.29228692 -1.26906764 178.15473175 -1.31126022 C192.24277293 -1.61473861 192.24277293 -1.61473861 196.59148979 2.38135338 C198.3984618 5.19277817 199.70408821 7.92691802 201 11 C201.97196132 12.4633969 202.9772984 13.90603321 204.03515625 15.30859375 C204.52749756 15.98293457 205.01983887 16.65727539 205.52709961 17.35205078 C206.2871228 18.38434814 206.2871228 18.38434814 207.0625 19.4375 C212.52515485 26.92422407 217.87090054 34.4853035 223.15454102 42.09936523 C223.70037842 42.88384033 224.24621582 43.66831543 224.80859375 44.4765625 C225.33179199 45.23485352 225.85499023 45.99314453 226.39404297 46.77441406 C227.48276773 48.28320319 228.62539973 49.75425263 229.81298828 51.18652344 C230.38130371 51.87520508 230.94961914 52.56388672 231.53515625 53.2734375 C232.05601807 53.87333496 232.57687988 54.47323242 233.11352539 55.09130859 C233.55233032 56.03611084 233.55233032 56.03611084 234 57 C233.34 58.65 232.68 60.3 232 62 C168.31 62 104.62 62 39 62 C38.34 60.35 37.68 58.7 37 57 C99.7 56.67 162.4 56.34 227 56 C214.9353381 38.55755665 214.9353381 38.55755665 202.55951595 21.32335949 C201 19 201 19 199.38623142 15.7928896 C195.93990431 9.36380169 195.93990431 9.36380169 190.16127849 5.24797606 C184.69138641 4.03639072 179.103862 4.30935551 173.53686523 4.43237305 C171.66361363 4.42617125 169.79037359 4.41424994 167.91719055 4.39706421 C162.850433 4.36669101 157.78725408 4.41600286 152.720927 4.47994971 C147.41979547 4.53320528 142.11895281 4.51274355 136.81764221 4.50019836 C126.78753249 4.48761412 116.75891121 4.54104605 106.72913557 4.61836988 C95.30712716 4.70319998 83.88541819 4.7141748 72.46313941 4.71903551 C48.97484135 4.73068087 25.48768451 4.83478341 2 5 C1.34 3.35 0.68 1.7 0 0 Z " fill="#222222" transform="translate(158,213)"/>
<path d="M0 0 C2.69213761 2.42393026 4.32117697 5.04088114 6.1015625 8.18359375 C6.67390625 9.19357422 7.24625 10.20355469 7.8359375 11.24414062 C8.42632812 12.29794922 9.01671875 13.35175781 9.625 14.4375 C10.223125 15.48744141 10.82125 16.53738281 11.4375 17.61914062 C16.84255932 27.21250949 16.84255932 27.21250949 17 30 C15.69238281 32.9609375 15.69238281 32.9609375 13.703125 36.375 C13.35368835 36.98134277 13.00425171 37.58768555 12.64422607 38.21240234 C11.52424087 40.14850224 10.38715948 42.07394816 9.25 44 C8.49892462 45.2962525 7.7489122 46.59312152 7 47.890625 C5.03177128 51.28062492 3.05713408 54.66279801 1 58 C0.58097412 58.78342773 0.16194824 59.56685547 -0.26977539 60.37402344 C-2.98882783 62.9292498 -5.98511071 62.49370029 -9.51171875 62.390625 C-10.23994339 62.38496521 -10.96816803 62.37930542 -11.71846008 62.37347412 C-14.04214498 62.35110029 -16.36428207 62.30090669 -18.6875 62.25 C-20.26364959 62.22993609 -21.83982337 62.21168512 -23.41601562 62.1953125 C-27.27793924 62.15123283 -31.1387073 62.08220225 -35 62 C-31.14594518 54.06533444 -27.00740946 46.39287897 -22.5 38.8125 C-16.63905747 28.87182733 -10.95197537 18.85049524 -5.35546875 8.7590332 C-4.79859375 7.75702881 -4.24171875 6.75502441 -3.66796875 5.72265625 C-2.92969849 4.38859741 -2.92969849 4.38859741 -2.17651367 3.02758789 C-1 1 -1 1 0 0 Z " fill="#242424" transform="translate(150,214)"/>
<path d="M0 0 C3 1 3 1 4.56225586 3.65209961 C5.10760986 4.80718018 5.65296387 5.96226074 6.21484375 7.15234375 C6.82481599 8.4160416 7.43484376 9.67971264 8.04492188 10.94335938 C8.99398707 12.94099051 9.9389172 14.94050775 10.8815918 16.94116211 C11.79507676 18.87074137 12.72306748 20.79283188 13.65234375 22.71484375 C14.19882568 23.87105225 14.74530762 25.02726074 15.30834961 26.21850586 C16.90200234 29.39417578 16.90200234 29.39417578 21 31 C21.33 26.05 21.66 21.1 22 16 C20.68 15.67 19.36 15.34 18 15 C20.8125 13.4375 20.8125 13.4375 24 12 C24.99 12.33 25.98 12.66 27 13 C27 13.66 27 14.32 27 15 C27.515625 14.505 28.03125 14.01 28.5625 13.5 C31.88796936 11.45355731 34.16306413 11.58142518 38 12 C39.6796875 13.01953125 39.6796875 13.01953125 41 15 C41.3255536 17.74559803 41.51144665 20.31291263 41.5625 23.0625 C41.37363016 28.52810091 41.37363016 28.52810091 44 33 C40.37 33 36.74 33 33 33 C33.99 32.67 34.98 32.34 36 32 C35.505 24.575 35.505 24.575 35 17 C32.69 17 30.38 17 28 17 C27.94615479 19.29141286 27.90727913 21.58318188 27.875 23.875 C27.85179687 25.15117187 27.82859375 26.42734375 27.8046875 27.7421875 C27.64358476 31.08593338 27.64358476 31.08593338 30 33 C22.74 33 15.48 33 8 33 C8.99 32.505 8.99 32.505 10 32 C9.525625 30.9275 9.05125 29.855 8.5625 28.75 C7.39707189 26.11511906 6.71357082 23.8542833 6 21 C1.38 21 -3.24 21 -8 21 C-8.33 24.3 -8.66 27.6 -9 31 C-7.68 31.66 -6.36 32.32 -5 33 C-9.29 33 -13.58 33 -18 33 C-17.24372314 32.31139893 -16.48744629 31.62279785 -15.70825195 30.91333008 C-12.85474245 27.84374305 -11.38800171 25.19164015 -9.66796875 21.38671875 C-9.3864949 20.77230423 -9.10502106 20.15788971 -8.8150177 19.52485657 C-7.92860779 17.58367123 -7.05788391 15.63591551 -6.1875 13.6875 C-5.58501237 12.36086079 -4.98150604 11.03468371 -4.37695312 9.70898438 C-2.9061604 6.47791177 -1.44933849 3.24076278 0 0 Z " fill="#2E2E2E" transform="translate(204,228)"/>
<path d="M0 0 C2.87029869 1.79393668 4.49131638 2.98263276 6 6 C6.54399285 10.539219 6.62289461 13.9544269 4.25 17.9375 C0.92728316 20.98332377 -0.86981204 21.85349415 -5.375 22.4375 C-10.1853299 21.85694294 -11.61392593 20.38607407 -15 17 C-16.73631636 13.52736727 -16.60190402 9.78806987 -16 6 C-11.35610133 0.13402273 -7.21261876 -0.93427704 0 0 Z " fill="#3A3A3A" transform="translate(307,240)"/>
<path d="M0 0 C0.99 0 1.98 0 3 0 C4.3671875 1.7734375 4.3671875 1.7734375 5.875 4.375 C9.04614708 9.58046785 12.46636691 14.51675813 16.0625 19.4375 C21.52253469 26.92618627 26.8708503 34.48523109 32.15454102 42.09936523 C35.66699832 47.14745331 39.27380612 52.10742587 43 57 C42.34 58.32 41.68 59.64 41 61 C36.37444632 56.74621979 32.97833713 51.9213951 29.4375 46.75 C28.1891338 44.94638494 26.94043036 43.14300326 25.69140625 41.33984375 C24.75965576 39.98995361 24.75965576 39.98995361 23.80908203 38.61279297 C21.18892685 34.82859584 18.53433183 31.06922139 15.875 27.3125 C14.90879624 25.94535344 13.94265047 24.57816589 12.9765625 23.2109375 C12.25581543 22.1914502 12.25581543 22.1914502 11.52050781 21.15136719 C8.76179821 17.24806773 6.00612532 13.34262443 3.25 9.4375 C2.23438721 7.9986893 1.2187634 6.55988637 0.203125 5.12109375 C-0.88742187 3.57615234 -0.88742187 3.57615234 -2 2 C-1.34 1.34 -0.68 0.68 0 0 Z " fill="#0E0E0E" transform="translate(349,213)"/>
<path d="M0 0 C0.66 0 1.32 0 2 0 C4.00345661 3.47718722 6.00218349 6.95706967 8 10.4375 C8.57234375 11.43072266 9.1446875 12.42394531 9.734375 13.44726562 C10.27578125 14.39150391 10.8171875 15.33574219 11.375 16.30859375 C11.87773437 17.18314209 12.38046875 18.05769043 12.8984375 18.95874023 C14 21 14 21 14 22 C9.55152983 22.53460843 5.42660648 22.78858785 1 22 C-2.757141 18.70402432 -4.44466737 14.6659979 -6 10 C-4.85546875 7.51953125 -4.85546875 7.51953125 -3.1875 4.8125 C-2.37345703 3.46091797 -2.37345703 3.46091797 -1.54296875 2.08203125 C-1.03378906 1.39496094 -0.52460938 0.70789063 0 0 Z " fill="#282828" transform="translate(172,250)"/>
<path d="M0 0 C0.17235805 3.37473403 0.33769763 6.74976764 0.5 10.125 C0.54842041 11.12370117 0.59684082 12.12240234 0.64672852 13.15136719 C0.95791007 19.95894398 1.04358583 26.70248974 0.83984375 33.515625 C0.73693219 36.17703388 0.73693219 36.17703388 3 38 C-0.63 38 -4.26 38 -8 38 C-6.515 37.505 -6.515 37.505 -5 37 C-5.11811981 32.33673618 -5.24235866 27.6736912 -5.37231445 23.01074219 C-5.41567241 21.42387343 -5.45734687 19.83695776 -5.49731445 18.25 C-5.55499632 15.97121021 -5.61869638 13.69265678 -5.68359375 11.4140625 C-5.70866249 10.34679428 -5.70866249 10.34679428 -5.73423767 9.25796509 C-5.79721937 5.50339183 -5.79721937 5.50339183 -7 2 C-4.35261084 0.5393715 -3.10551666 0 0 0 Z " fill="#2D2D2D" transform="translate(274,223)"/>
<path d="M0 0 C3.0143548 0.1545823 4.50734886 0.49915751 6.64453125 2.671875 C8.38442844 5.66028631 8.33443452 7.68851487 8.25 11.125 C8.23453125 12.17945313 8.2190625 13.23390625 8.203125 14.3203125 C8 17 8 17 7 19 C4.1875 19.3125 4.1875 19.3125 1 19 C-1.90764631 15.30796538 -2.38727499 12.44279731 -2.3125 7.8125 C-2.30863281 6.76707031 -2.30476563 5.72164062 -2.30078125 4.64453125 C-2 2 -2 2 0 0 Z " fill="#FAFAFA" transform="translate(299,241)"/>
<path d="M0 0 C4.4183864 4.15943335 6.37776256 9.58070928 9 15 C4.38 15 -0.24 15 -5 15 C-5.33 18.3 -5.66 21.6 -6 25 C-4.68 25.66 -3.36 26.32 -2 27 C-6.29 27 -10.58 27 -15 27 C-14.28457031 26.40832031 -13.56914062 25.81664062 -12.83203125 25.20703125 C-8.79253155 21.16753155 -6.91912634 15.85495476 -4.6875 10.6875 C-4.23310547 9.66076172 -3.77871094 8.63402344 -3.31054688 7.57617188 C-2.19660432 5.05514399 -1.09353379 2.52993101 0 0 Z " fill="#505050" transform="translate(201,234)"/>
<path d="M0 0 C0.66 0.66 1.32 1.32 2 2 C2.99 1.34 3.98 0.68 5 0 C7.6875 0.375 7.6875 0.375 10 1 C10 2.32 10 3.64 10 5 C8.865625 4.814375 7.73125 4.62875 6.5625 4.4375 C5.386875 4.293125 4.21125 4.14875 3 4 C1.06076948 5.93923052 1.78133528 9.36539595 1.75 11.9375 C1.72421875 13.20464844 1.6984375 14.47179687 1.671875 15.77734375 C1.78015625 16.84082031 1.8884375 17.90429688 2 19 C2.99 19.66 3.98 20.32 5 21 C1.04 21 -2.92 21 -7 21 C-6.34 20.34 -5.68 19.68 -5 19 C-4.69400937 16.43083343 -4.48912913 13.95241616 -4.375 11.375 C-4.33632813 10.66859375 -4.29765625 9.9621875 -4.2578125 9.234375 C-4.16352276 7.49001476 -4.08067109 5.74504309 -4 4 C-5.65 4 -7.3 4 -9 4 C-3.7826087 0 -3.7826087 0 0 0 Z " fill="#343434" transform="translate(321,240)"/>
<path d="M0 0 C3.78857814 0.63142969 4.73224154 1.4181744 7 4.5 C7.2906124 7.39449949 7.38186045 9.87949935 7.25 12.75 C7.23195313 13.49507812 7.21390625 14.24015625 7.1953125 15.0078125 C7.14835649 16.83909701 7.07661652 18.66971649 7 20.5 C7.66 20.83 8.32 21.16 9 21.5 C5.7 21.5 2.4 21.5 -1 21.5 C-0.34 20.84 0.32 20.18 1 19.5 C1.28190557 16.40677543 1.28190557 16.40677543 1.1875 12.9375 C1.18105469 11.76058594 1.17460937 10.58367187 1.16796875 9.37109375 C1.32517435 6.60364027 1.32517435 6.60364027 0 5.5 C-2.32817964 5.13239269 -4.6618385 4.79758419 -7 4.5 C-4.73943528 1.7177665 -3.5944274 0.59907123 0 0 Z " fill="#363636" transform="translate(282,239.5)"/>
<path d="M0 0 C0.66 0.33 1.32 0.66 2 1 C1.01 2.485 1.01 2.485 0 4 C-0.3157994 6.18186947 -0.3157994 6.18186947 -0.25 8.5 C-0.25515625 9.2734375 -0.2603125 10.046875 -0.265625 10.84375 C-0.12738062 13.29513844 -0.12738062 13.29513844 2 16 C3.89743728 16.54155021 3.89743728 16.54155021 6 16.625 C9.84347826 16.92173913 9.84347826 16.92173913 12 18 C8.18365489 20.69389067 5.67039834 21.66719976 1 21 C-4.57894737 17.84210526 -4.57894737 17.84210526 -6 15 C-6.47626772 11.59378152 -6.59152744 8.39462141 -6 5 C-4.20434973 2.62848522 -2.57046271 1.60653919 0 0 Z " fill="#323232" transform="translate(254,241)"/>
<path d="M0 0 C0.05607422 1.30324219 0.05607422 1.30324219 0.11328125 2.6328125 C0.52448963 11.28042899 0.52448963 11.28042899 4 19 C1.8125 19.375 1.8125 19.375 -1 19 C-4.04223206 16.36339888 -5.68354137 14.7124257 -6.41796875 10.73828125 C-6.54294521 7.13776887 -6.34242635 4.66854668 -4.6875 1.4375 C-3 0 -3 0 0 0 Z " fill="#313131" transform="translate(297,242)"/>
<path d="M0 0 C2.97246802 2.54782974 4.41535288 5.45340883 6 9 C6 9.66 6 10.32 6 11 C2.7 11 -0.6 11 -4 11 C-1.125 2.25 -1.125 2.25 0 0 Z " fill="#F9F9F9" transform="translate(202,236)"/>
<path d="M0 0 C0.99 0.33 1.98 0.66 3 1 C4.1875 4.0625 4.1875 4.0625 5 7 C2.36 7 -0.28 7 -3 7 C-1.125 2.25 -1.125 2.25 0 0 Z " fill="#2D2D2D" transform="translate(163,265)"/>
<path d="M0 0 C5.41538462 -0.36923077 5.41538462 -0.36923077 8.375 1.5 C8.91125 1.995 9.4475 2.49 10 3 C9.67 3.99 9.34 4.98 9 6 C5.32579134 5.69381595 4.21864487 5.24228216 1.6875 2.4375 C1.130625 1.633125 0.57375 0.82875 0 0 Z " fill="#2E2E2E" transform="translate(257,240)"/>
<path d="M0 0 C0 1.32 0 2.64 0 4 C-1.093125 3.835 -2.18625 3.67 -3.3125 3.5 C-6.87525873 2.93281816 -6.87525873 2.93281816 -10 3 C-7.7846105 -1.43077901 -4.3377361 -1.20492669 0 0 Z " fill="#3B3B3B" transform="translate(331,241)"/>
<path d="M0 0 C0.4125 0.61875 0.825 1.2375 1.25 1.875 C3.06345914 4.37017829 3.06345914 4.37017829 7 6 C2.71 6 -1.58 6 -6 6 C-4 4 -2 2 0 0 Z " fill="#393939" transform="translate(192,255)"/>
</svg>
