<?xml version="1.0" encoding="UTF-8"?>
<svg version="1.1" xmlns="http://www.w3.org/2000/svg" width="512" height="512">
<path d="M0 0 C0.87269531 0.65097656 1.74539063 1.30195312 2.64453125 1.97265625 C32.93965183 25.70309477 52.23585282 58.65605116 57 97 C58.86057886 133.69318148 52.80987301 169.56252294 28.6171875 198.65234375 C26.62181028 201.07388927 26.62181028 201.07388927 27 205 C28.78321211 207.37032961 28.78321211 207.37032961 31.26972961 209.7305603 C31.72905433 210.19118602 32.18837905 210.65181175 32.6616227 211.12639582 C34.20691183 212.67124774 35.76604581 214.20132985 37.32543945 215.73193359 C38.43473652 216.83519244 39.54313419 217.93935624 40.6506958 219.0443573 C43.03990032 221.4242964 45.43523594 223.79782649 47.8354435 226.16666794 C51.63151668 229.91348356 55.41287298 233.67491762 59.19218445 237.43862915 C66.53767908 244.74980431 73.89780817 252.04614429 81.25973511 259.34076691 C90.62095603 268.61747729 99.97640146 277.89995955 109.31701058 287.19742644 C113.074089 290.93614511 116.83871631 294.66704136 120.60942614 298.3920095 C122.95672841 300.7137101 125.29781169 303.04160655 127.63731384 305.37116432 C128.72187062 306.44851944 129.80901994 307.52327204 130.89896202 308.5951786 C132.38946566 310.06170293 133.87035059 311.53732904 135.34931946 313.01547241 C136.17985494 313.83804724 137.01039042 314.66062206 137.86609364 315.5081234 C140.88966416 319.03890842 142.76448944 322.38507044 143.4375 327 C142.8708265 330.88576111 141.47260877 332.97792261 139 336 C135.40420067 338.21566888 132.71443086 338.47522806 128.59391594 337.83068752 C125.41974315 336.81417589 123.80875904 335.37810059 121.38015747 333.10353088 C120.50573124 332.28718737 119.63130501 331.47084385 118.73038101 330.62976265 C114.11794413 326.18730053 109.56198866 321.69278598 105.04248047 317.15600586 C103.98704686 316.10028938 102.93139142 315.04479463 101.87553406 313.98950195 C99.04132982 311.15558178 96.21019486 308.31861397 93.37964773 305.48104167 C90.40929956 302.50439422 87.43607305 299.53062449 84.46316528 296.55653381 C78.84805393 290.93832837 73.23549405 285.31758131 67.62387192 279.69589096 C61.22914282 273.28994065 54.83153559 266.88686797 48.43369842 260.48402202 C35.28595262 247.32585543 22.1417819 234.16412292 9 221 C5.511649 222.68144536 2.56955188 224.71323461 -0.5625 227 C-15.140169 237.25228797 -30.85383663 244.25759169 -48 249 C-48.67579102 249.19207031 -49.35158203 249.38414062 -50.04785156 249.58203125 C-69.37734418 254.79492581 -95.79536319 254.50523822 -115 249 C-115.81291504 248.76893555 -116.62583008 248.53787109 -117.46337891 248.29980469 C-141.12188282 241.36834693 -161.35692644 230.24436003 -179 213 C-180.27617187 211.81664062 -180.27617187 211.81664062 -181.578125 210.609375 C-203.0404378 190.22692699 -215.56417347 161.99256219 -220 133 C-220.13019531 132.18402344 -220.26039063 131.36804688 -220.39453125 130.52734375 C-225.13848432 93.65101522 -213.91966283 55.99768857 -191.37988281 26.73193359 C-167.75466809 -2.92080407 -133.72478016 -20.95452604 -96.25 -25.6875 C-62.23644349 -28.32116912 -27.61299909 -20.67951611 0 0 Z M-157 24 C-157.81984375 24.68707031 -158.6396875 25.37414062 -159.484375 26.08203125 C-180.88125436 44.52188846 -194.54437081 71.00117589 -198 99 C-200.07854085 130.53365259 -194.15958184 162.04124444 -172.9765625 186.59765625 C-170.08094338 189.83044276 -167.05355567 192.91659113 -164 196 C-162.98679687 197.10408203 -162.98679687 197.10408203 -161.953125 198.23046875 C-143.62109738 217.85513934 -114.6265572 229.30741089 -88.0625 230.3359375 C-53.39742174 230.85100357 -23.31738222 219.82319421 1.75 195.625 C25.36499001 171.15439441 35.68834007 140.95878669 35.27734375 107.328125 C34.30487863 75.37708206 18.59680472 47.24270078 -4.078125 25.515625 C-9.8738983 20.17937782 -16.18796789 15.92441819 -23 12 C-23.6192334 11.63825684 -24.2384668 11.27651367 -24.87646484 10.90380859 C-66.46313152 -12.91077831 -120.90174569 -7.37679389 -157 24 Z " fill="#000000" transform="translate(295,100)"/>
</svg>
